<svg width="120" height="90" viewBox="0 0 120 90" fill="none" xmlns="http://www.w3.org/2000/svg">
<path d="M118.362 0H1.6385C0.732733 0 0 0.732779 0 1.63871V88.3613C0 89.2672 0.732689 90 1.6385 90H118.356C119.261 90 119.994 89.2672 119.994 88.3613L120 1.64461C120 0.738731 119.267 0.00590801 118.361 0.00590801L118.362 0ZM116.723 86.7226L3.28174 86.7284V3.28348H116.717V86.7284L116.723 86.7226ZM45.0005 63.7521C55.339 63.7521 63.7501 55.3395 63.7501 45.0001C63.7501 34.6608 55.3386 26.2482 45.0005 26.2482C34.6625 26.2482 26.2509 34.6608 26.2509 45.0001C26.2509 55.3395 34.6625 63.7521 45.0005 63.7521ZM45.0005 29.5363C53.5274 29.5363 60.4684 36.4775 60.4684 45.0061C60.4684 53.5346 53.528 60.4758 45.0005 60.4758C36.473 60.4758 29.5327 53.5346 29.5327 45.0061C29.5327 36.4775 36.473 29.5363 45.0005 29.5363ZM60.2144 23.2759C60.7798 22.5661 61.8124 22.4508 62.5221 23.0162C69.2606 28.3938 73.126 36.4083 73.126 45C73.126 45.9059 72.3933 46.6387 71.4875 46.6387C70.5817 46.6387 69.849 45.906 69.849 45C69.849 37.4126 66.4336 30.3328 60.4796 25.579C59.77 25.0135 59.6546 23.9808 60.22 23.271L60.2144 23.2759ZM45.0005 52.5005C49.1371 52.5005 52.5005 49.1366 52.5005 44.9996C52.5005 40.8682 49.1371 37.4986 45.0005 37.4986C40.864 37.4986 37.5005 40.8625 37.5005 44.9996C37.5005 49.1309 40.864 52.5005 45.0005 52.5005ZM45.0005 40.7874C47.3255 40.7874 49.2179 42.6799 49.2179 45.0053C49.2179 47.3307 47.3257 49.2232 45.0005 49.2232C42.6754 49.2232 40.7832 47.3307 40.7832 45.0053C40.7832 42.6799 42.6754 40.7874 45.0005 40.7874ZM45.0005 82.504C59.8156 82.504 73.1434 73.8317 79.1944 60.3591L88.0099 57.578C88.8753 57.3069 89.3541 56.3837 89.083 55.5182L88.4483 53.5045L100.021 49.852C100.702 49.6385 101.169 49.0038 101.169 48.2883V27.696H110.868C111.773 27.696 112.506 26.9632 112.506 26.0572V14.7712C112.506 10.7669 109.246 7.50682 105.243 7.50682H93.8194C89.8156 7.50682 86.5559 10.7668 86.5559 14.7712V26.0572C86.5559 26.9631 87.2885 27.696 88.1944 27.696H97.8925V47.083L87.4674 50.372L86.8328 48.3582C86.7001 47.9428 86.4116 47.5966 86.0251 47.3946C85.6385 47.1927 85.1885 47.1581 84.7732 47.285L82.3731 48.0409C82.4539 47.0254 82.5058 46.0041 82.5058 44.9943C82.5058 24.3148 65.6821 7.48904 45.0051 7.48904C24.3281 7.48904 7.50446 24.3148 7.50446 44.9943C7.50446 65.6739 24.3281 82.4996 45.0051 82.4996L45.0005 82.504ZM89.8283 14.7652C89.8283 12.5668 91.6167 10.7782 93.8148 10.7782H105.238C107.436 10.7782 109.224 12.5668 109.224 14.7652V24.4125H105.007V16.6404C105.007 15.7345 104.274 15.0017 103.369 15.0017H95.6955C94.7897 15.0017 94.057 15.7345 94.057 16.6404V24.4125H89.8396V14.7652H89.8283ZM97.3282 18.2791H101.724V24.4125H97.3282V18.2791ZM85.4608 54.935L77.5281 57.4392H77.5223L71.8858 59.2163L71.2512 57.2025L70.6165 55.1946L80.9493 51.9346H80.9551L84.1916 50.9133L85.4608 54.935ZM45.0004 10.7768C63.8652 10.7768 79.2179 26.1255 79.2179 44.9985C79.2179 46.366 79.1371 47.7508 78.9698 49.1183L68.0659 52.5629C67.2005 52.8341 66.7217 53.7573 66.9928 54.6228L67.6275 56.6365L64.3505 57.6693C63.4851 57.9405 63.0062 58.8637 63.2774 59.7292C63.5485 60.6004 64.4947 61.0736 65.337 60.8024L68.614 59.7696L69.2486 61.7833C69.4967 62.6372 70.4717 63.1219 71.3082 62.8565L74.8562 61.7371C68.8504 72.475 57.4964 79.232 44.9942 79.232C26.1294 79.232 10.7767 63.8834 10.7767 45.0104C10.7767 26.1432 26.1294 10.7887 44.9942 10.7887L45.0004 10.7768ZM110.863 70.3177H88.1887C87.283 70.3177 86.5502 71.0504 86.5502 71.9564V80.8593C86.5502 81.7652 87.2829 82.4981 88.1887 82.4981H110.863C111.768 82.4981 112.501 81.7653 112.501 80.8593V71.9564C112.501 71.0505 111.768 70.3177 110.863 70.3177ZM109.224 79.2206H89.8275V73.6007H109.224V79.2206ZM12.8884 18.284C15.8596 18.284 18.2768 15.8664 18.2768 12.8949C18.2768 9.92337 15.8596 7.50578 12.8884 7.50578C9.91728 7.50578 7.49999 9.92337 7.49999 12.8949C7.49999 15.8664 9.91728 18.284 12.8884 18.284ZM12.8884 10.783C14.0538 10.783 15 11.7293 15 12.8949C15 14.0604 14.0538 15.0067 12.8884 15.0067C11.723 15.0067 10.7769 14.0604 10.7769 12.8949C10.7769 11.7293 11.723 10.783 12.8884 10.783ZM12.8884 82.5041C15.8596 82.5041 18.2768 80.0865 18.2768 77.115C18.2768 74.1435 15.8596 71.7259 12.8884 71.7259C9.91728 71.7259 7.49999 74.1435 7.49999 77.115C7.49999 80.0865 9.91728 82.5041 12.8884 82.5041ZM12.8884 75.0032C14.0538 75.0032 15 75.9495 15 77.115C15 78.2806 14.0538 79.2268 12.8884 79.2268C11.723 79.2268 10.7769 78.2806 10.7769 77.115C10.7769 75.9495 11.723 75.0032 12.8884 75.0032Z" fill="#275B89"/>
</svg>
