<svg width="164" height="132" viewBox="0 0 164 132" fill="none" xmlns="http://www.w3.org/2000/svg">
<path fill-rule="evenodd" clip-rule="evenodd" d="M79.098 75.621C71.7482 76.5113 64.0169 77.0341 56.2155 76.9211C42.689 76.7303 37.0491 79.7333 34.9577 83.3229C33.9754 85.0116 33.9118 86.7145 34.0319 87.8239C51.9894 93.8724 58.9298 113.756 58.9298 113.756C59.3397 114.95 58.9157 116.271 57.8768 116.992C56.845 117.72 55.4529 117.67 54.4775 116.872C53.7072 116.25 52.1878 115.904 50.3928 115.635C47.0925 115.141 42.9229 115.183 39.5095 115.982C35.2764 116.971 30.824 115.706 27.8347 114.47C26.7958 117.056 24.4425 120.073 19.1351 121.161C16.6545 121.67 14.4567 123.26 12.6687 124.92C9.76407 127.626 7.94783 130.629 7.94783 130.629C7.42487 131.491 6.492 132.007 5.48843 132C4.4849 131.986 3.56618 131.442 3.0645 130.566C-1.3101 122.878 -0.461952 114.844 2.25178 107.969C5.17053 100.557 10.2518 94.5723 12.5415 92.1133C5.84191 64.888 14.1033 35.4233 39.2124 15.0174C55.5869 1.69811 77.453 2.22811 94.6546 3.59182C101.171 4.10057 106.966 4.72237 111.432 4.60931C113.863 4.54572 115.828 4.33375 117.142 3.54942C120.612 1.47917 130.746 -4.01817 144.768 5.05446C156.047 12.3536 156.563 24.7259 156.33 29.2897C157.694 30.2083 159.475 31.2399 160.881 32.6177C163.376 35.0555 165.001 38.3127 163.298 43.1529C162.167 46.3396 159.001 49.9221 154.125 53.2925C147.538 57.85 137.757 62.238 126.571 65.234C122.211 66.4069 114.055 68.887 103.667 71.2611C101.582 77.6911 97.8507 84.2201 91.356 89.3571C90.6281 89.9294 89.6669 90.1131 88.7835 89.8446C88.7835 89.8446 79.1511 87.1031 79.1015 75.6209L79.098 75.621ZM157.909 41.408C157.924 41.3656 157.945 41.3161 157.959 41.2737C158.892 38.6241 157.528 37.0554 156.03 35.8894C154.411 34.6317 152.616 33.6848 151.549 32.7733C150.8 32.1374 150.432 31.1552 150.581 30.1801C150.581 30.1801 152.68 16.9104 141.697 9.80135C130.694 2.68597 122.757 6.78415 120.036 8.4023C118.079 9.57524 115.195 10.1688 111.57 10.2535C106.948 10.3736 100.948 9.75888 94.2057 9.22188C78.2764 7.96415 57.9371 7.06679 42.7708 19.3968C19.0814 38.6576 11.5407 66.6047 18.3957 92.2038C18.6643 93.2001 18.3674 94.2671 17.6254 94.9736C17.6254 94.9736 10.9047 101.418 7.50522 110.038C5.87979 114.164 5.01055 118.828 6.22608 123.484C6.97519 122.615 7.84444 121.683 8.81972 120.778C11.3285 118.446 14.5016 116.341 17.9928 115.62C22.968 114.603 22.9892 110.427 22.9892 110.427C22.9539 109.374 23.498 108.392 24.4097 107.876C25.3284 107.353 26.4521 107.381 27.3355 107.946C27.3355 107.946 32.9962 111.698 38.2188 110.476C42.2046 109.543 47.0668 109.458 50.982 110.01C47.7807 104.251 41.4274 95.701 30.8549 92.7616C29.9644 92.5143 29.2577 91.8501 28.9468 90.981C28.9468 90.981 27.0316 85.6886 30.0704 80.4811C32.6923 75.98 39.3636 71.0198 56.2963 71.267C63.9075 71.3801 71.4481 70.8643 78.6215 69.9952C76.9113 65.8263 71.9078 65.3105 71.9078 65.3105C70.3531 65.1551 69.2293 63.756 69.3849 62.2087C69.5475 60.6613 70.9397 59.5307 72.4946 59.6862C72.4946 59.6862 85.7949 61.0853 84.7984 74.3055C84.3673 80.0219 87.3779 82.728 89.166 83.8162C104.551 70.2074 99.8656 47.1088 99.8656 47.1088C99.5617 45.5755 100.558 44.0916 102.092 43.7879C103.618 43.484 105.11 44.4803 105.413 46.0066C105.413 46.0066 107.109 54.7259 105.201 65.1065C114.169 62.9585 121.194 60.8245 125.102 59.7718C135.569 56.9736 144.735 52.9107 150.905 48.6431C151.583 48.1767 152.226 47.7033 152.82 47.244C152.389 47.2157 151.944 47.1804 151.505 47.1451C143.477 46.4102 133.711 43.4637 133.711 43.4637C132.219 43.0185 131.371 41.4357 131.824 39.9449C132.276 38.4469 133.852 37.606 135.35 38.0582C135.35 38.0582 144.495 40.828 152.014 41.5135C154.29 41.7184 156.397 41.8037 157.909 41.408ZM133.012 26.2657C134.573 26.2657 135.838 27.5376 135.838 29.0921C135.838 30.6537 134.573 31.9185 133.012 31.9185C131.45 31.9185 130.185 30.6537 130.185 29.0921C130.185 27.5376 131.45 26.2657 133.012 26.2657Z" fill="#275B89"/>
</svg>
