<svg width="142" height="159" viewBox="0 0 142 159" fill="none" xmlns="http://www.w3.org/2000/svg">
<path d="M140.662 17.8553C139.582 17.229 138.22 17.5108 137.202 18.458L134.822 17.0803L137.468 13.2444C137.648 12.986 137.719 12.6807 137.687 12.3676C137.155 7.96035 133.139 3.23205 128.145 1.1184C123.769 -0.729071 119.432 -0.27502 115.925 2.38657C115.745 2.51965 115.604 2.70753 115.518 2.91106L114.625 5.07942L112.379 3.77993C112.465 3.38069 112.496 2.98144 112.457 2.59787C112.363 1.67414 111.893 0.899139 111.165 0.476409C110.437 0.0536799 109.529 0.0380284 108.684 0.413783C107.963 0.734748 107.329 1.32968 106.899 2.08119C106.468 2.8327 106.272 3.67816 106.351 4.46098C106.421 5.17335 106.727 5.79177 107.188 6.23799C106.828 6.25364 106.46 6.33192 106.1 6.48849C105.38 6.80945 104.746 7.40439 104.315 8.1559C103.392 9.75287 103.627 11.569 104.801 12.4614C103.658 12.4379 102.468 13.1424 101.74 14.3949C101.31 15.1464 101.114 15.9919 101.192 16.7747C101.286 17.6984 101.756 18.4734 102.484 18.8962C102.867 19.1154 103.298 19.2249 103.744 19.2249C104.151 19.2249 104.566 19.131 104.965 18.9509C105.318 18.7944 105.646 18.5674 105.944 18.2934L108.558 19.8042L107.619 22.0744L87.6494 56.6679C81.0737 54.523 74.6623 53.8655 69.2061 54.8909C61.0804 56.4096 55.6006 61.3962 53.3539 69.3105C51.3811 76.262 49.1344 80.8571 46.2851 83.7849C44.1401 85.9848 41.369 87.3233 38.4333 88.7481C32.7342 91.5115 26.2682 94.6428 22.1896 104.874C18.9956 112.898 19.1914 121.948 22.7611 130.348C26.6674 139.554 34.2999 147.343 44.8214 152.869C51.8355 156.548 60.3448 158.45 68.5251 158.45C74.4902 158.45 80.2831 157.441 85.1992 155.382C92.7377 152.219 97.8418 146.849 99.9476 139.858C101.873 133.463 101.889 127.897 101.905 123.427C101.912 120.468 101.92 117.908 102.539 116.225C104.402 111.168 106.484 108.929 108.887 106.338C110.962 104.107 113.318 101.578 115.651 96.9049C119.322 89.562 118.117 81.2328 112.246 73.4518C110.273 70.8371 107.768 68.3399 104.934 66.0463L124.842 31.563L125.71 30.3105L128.27 31.79C128.184 32.1893 128.153 32.5885 128.192 32.9721C128.286 33.8958 128.756 34.6708 129.484 35.0936C129.875 35.3206 130.306 35.4302 130.744 35.4302C131.863 35.4302 133.038 34.7178 133.75 33.4888C134.181 32.7373 134.376 31.8918 134.298 31.109C134.259 30.6941 134.134 30.3262 133.954 29.9896C134.118 30.0209 134.282 30.0522 134.455 30.0522C134.862 30.0522 135.276 29.9583 135.676 29.7782C136.396 29.4572 137.03 28.8623 137.461 28.1108C137.891 27.3593 138.087 26.5138 138.009 25.731C137.938 25.0265 137.648 24.4159 137.202 23.9775C137.578 24.181 137.993 24.2906 138.423 24.2906C138.831 24.2906 139.245 24.1967 139.645 24.0166C140.365 23.6957 140.999 23.1007 141.429 22.3492C142.416 20.6348 142.095 18.6622 140.686 17.848L140.662 17.8553ZM127.151 3.46696C131.112 5.1422 134.439 8.83715 135.088 12.2189L123.362 29.2141L110.374 22.0826L116.3 7.70988C116.332 7.66291 116.386 7.63943 116.418 7.59246C116.52 7.42024 116.559 7.23236 116.574 7.04448L117.741 4.22642C121.373 1.65084 125.185 2.63728 127.158 3.47491L127.151 3.46696ZM58.8653 118.276L62.2784 120.248L66.0281 122.417L71.3434 125.485L69.5116 128.663L50.8882 117.915L52.72 114.737L58.8495 118.275L58.8653 118.276ZM114.509 27.2568L95.6118 59.9865C95.1969 59.7752 94.7663 59.5794 94.3436 59.3759L113.28 26.576L114.509 27.2492L114.509 27.2568ZM94.3446 62.1869L85.3734 77.726C84.9428 77.5302 84.5045 77.3502 84.0582 77.1936L93.0764 61.5763C93.4991 61.7798 93.9297 61.9677 94.3446 62.1869ZM84.0896 79.9492L71.9871 100.905C71.6035 100.624 71.2434 100.31 70.899 99.9894L82.751 79.4562C83.205 79.5971 83.6512 79.7536 84.0896 79.9415V79.9492ZM69.1456 97.9307C66.6171 94.1888 66.2648 89.1788 68.6681 85.0142C70.2963 82.1961 72.9266 80.1763 76.0657 79.3388C77.1147 79.057 78.1794 78.9161 79.2361 78.9161C79.5179 78.9161 79.7997 78.9552 80.0816 78.9709L69.1378 97.9308L69.1456 97.9307ZM69.5918 102.244C69.9441 102.549 70.3198 102.847 70.7034 103.121L62.4524 117.407L61.2391 116.703L69.584 102.244L69.5918 102.244ZM64.6601 118.675L72.9111 104.381C73.4591 104.639 74.0148 104.866 74.5863 105.054L66.2101 119.568L64.6601 118.675ZM74.1714 102.197L86.2974 81.1947C86.7984 81.5548 87.2524 81.9462 87.683 82.369L75.8781 102.816C75.2988 102.652 74.7272 102.455 74.1714 102.197ZM89.413 84.4581C91.8319 88.1844 92.1373 93.0926 89.7653 97.1947C88.137 100.013 85.5067 102.033 82.3676 102.87C81.1073 103.207 79.8235 103.332 78.5554 103.261L89.4132 84.4503L89.413 84.4581ZM88.9981 80.0899C88.5519 79.6907 88.0744 79.3306 87.5734 78.9861L96.5759 63.3924C97.0925 63.6899 97.6014 64.003 98.1024 64.3161L88.9903 80.09L88.9981 80.0899ZM97.8363 61.2082L116.734 28.4784L118.299 29.3395L99.3707 62.1234C98.8618 61.8103 98.3529 61.5056 97.8363 61.2082ZM112.099 11.2017L109.782 9.86307C109.868 9.46383 109.9 9.06458 109.861 8.68101C109.79 7.96864 109.493 7.35022 109.031 6.91184C109.391 6.89618 109.759 6.8179 110.111 6.6535C110.463 6.49694 110.792 6.26991 111.09 5.99594L113.634 7.46766L112.092 11.2018L112.099 11.2017ZM109.093 3.37357C109.367 2.89605 109.735 2.71599 109.876 2.70817C109.939 2.83343 109.962 3.24832 109.688 3.71802C109.414 4.19554 109.046 4.3756 108.905 4.38342C108.843 4.25817 108.819 3.84327 109.093 3.37357ZM106.51 9.44818C106.784 8.97066 107.152 8.79059 107.293 8.78278C107.355 8.90803 107.379 9.32292 107.105 9.79263C106.831 10.2701 106.463 10.4502 106.322 10.458C106.259 10.3328 106.236 9.91788 106.51 9.44818ZM103.754 16.705C103.692 16.5797 103.668 16.1648 103.942 15.6951C104.216 15.2176 104.584 15.0375 104.725 15.0297C104.788 15.155 104.811 15.5699 104.537 16.0396C104.263 16.5171 103.895 16.6971 103.754 16.705ZM107.207 16.11C107.489 14.8731 107.144 13.6833 106.259 13.0022C106.275 13.0022 106.291 13.01 106.314 13.01C107.074 13.01 107.849 12.6577 108.498 12.0628L111.129 13.5814L109.532 17.4486L107.215 16.11L107.207 16.11ZM109.234 24.3688L111.035 25.363L92.0042 58.3192C91.3623 58.0452 90.7204 57.7869 90.0785 57.5442L109.234 24.3688ZM110.197 74.9945C113.916 79.9262 117.477 87.5353 113.36 95.7783C111.191 100.115 109.062 102.401 107.011 104.608C104.521 107.278 102.173 109.806 100.138 115.349C99.3627 117.455 99.3548 120.085 99.347 123.42C99.3392 127.725 99.3235 133.087 97.4995 139.123C95.6208 145.362 91.0177 150.176 84.1994 153.034C73.2007 157.645 57.4897 156.658 45.9906 150.623C23.6638 138.904 19.2189 119.183 24.5415 105.829C28.2522 96.5131 33.9823 93.734 39.5248 91.049C42.664 89.5303 45.6309 88.0898 48.0889 85.5692C51.2514 82.3282 53.6939 77.3887 55.7839 70.0145C57.7488 63.0944 62.5475 58.7262 69.6556 57.4032C74.9631 56.409 81.2022 57.1996 87.3473 59.2663C87.41 59.3211 87.4569 59.3837 87.5274 59.4229C87.7309 59.5403 87.9501 59.5951 88.1615 59.5951C88.1928 59.5951 88.2241 59.5716 88.2554 59.5716C89.0852 59.8691 89.9072 60.1978 90.7292 60.5345L81.4762 76.5589C79.4722 76.2457 77.4134 76.3397 75.4016 76.8798C71.5971 77.8975 68.4266 80.3322 66.454 83.7452C63.3305 89.1545 64.0508 95.7381 67.7457 100.341L59.0249 115.442L52.8954 111.903C52.6058 111.731 52.2535 111.692 51.9326 111.778C51.6038 111.864 51.3298 112.076 51.1576 112.373L48.0497 117.759C47.6975 118.37 47.9088 119.144 48.5194 119.497L69.3433 131.521C69.539 131.631 69.7581 131.693 69.9773 131.693C70.0869 131.693 70.1965 131.677 70.3061 131.646C70.6349 131.56 70.9089 131.349 71.0811 131.051L74.189 125.665C74.5412 125.055 74.3299 124.28 73.7193 123.928L68.404 120.859L77.156 105.704C77.8292 105.797 78.5103 105.852 79.1913 105.852C80.4673 105.852 81.7588 105.688 83.0272 105.343C86.8316 104.326 90.0022 101.891 91.9747 98.478C93.9396 95.0728 94.4641 91.1038 93.4465 87.2994C92.922 85.3501 92.0296 83.5731 90.824 82.031L100.249 65.7014C100.875 66.1319 101.502 66.5703 102.112 67.0243C102.222 67.2357 102.363 67.4236 102.582 67.5488C102.668 67.6036 102.77 67.5958 102.864 67.6271C105.666 69.8426 108.187 72.3083 110.207 74.9857L110.197 74.9945ZM101.508 63.5104L120.523 30.5682L121.986 31.3745L102.87 64.4871C102.416 64.1583 101.97 63.8295 101.5 63.5086L101.508 63.5104ZM131.522 32.2136C131.248 32.6911 130.88 32.8711 130.739 32.879C130.677 32.7537 130.653 32.3388 130.927 31.8691C131.201 31.3916 131.569 31.2115 131.71 31.2037C131.773 31.329 131.796 31.7439 131.522 32.2136ZM130.504 28.9258C130.152 29.0823 129.823 29.3093 129.526 29.5833L127.146 28.2055L129.401 24.9334L131.96 26.4129C131.874 26.8121 131.843 27.2114 131.882 27.595C131.921 28.0098 132.047 28.3778 132.227 28.7144C131.671 28.6048 131.084 28.6674 130.504 28.9258ZM135.233 26.8355C134.959 27.3131 134.591 27.4931 134.45 27.5009C134.387 27.3757 134.364 26.9608 134.638 26.4911C134.912 26.0136 135.28 25.8335 135.421 25.8257C135.483 25.951 135.507 26.3658 135.233 26.8355ZM133.237 24.2131L130.857 22.8353L133.377 19.1874L135.937 20.6669C135.851 21.0662 135.82 21.4654 135.859 21.849C135.929 22.5457 136.219 23.1563 136.665 23.6025C135.585 23.0075 134.254 23.2894 133.244 24.2209L133.237 24.2131ZM139.202 21.0818C138.928 21.5593 138.56 21.7394 138.419 21.7472C138.356 21.6219 138.333 21.207 138.607 20.7373C138.881 20.2598 139.249 20.0798 139.39 20.0719C139.452 20.1972 139.476 20.6121 139.202 21.0818ZM22.7959 27.6732C23.2186 27.1096 23.1012 26.3111 22.5375 25.8884L15.1946 20.3851C14.811 20.0955 14.2943 20.0485 13.8638 20.2677C13.4332 20.4869 13.1592 20.9253 13.1592 21.4028V40.4098C11.7736 39.4861 9.92614 38.9068 7.85178 38.9068C3.45234 38.9068 0 41.4274 0 44.6449C0 47.8624 3.44452 50.383 7.85178 50.383C12.2512 50.383 15.7035 47.8624 15.7035 44.6449V23.9473L21.011 27.9241C21.5746 28.3468 22.3731 28.2294 22.7958 27.6658L22.7959 27.6732ZM7.85965 47.8458C5.03357 47.8458 2.55219 46.3506 2.55219 44.6517C2.55219 42.9529 5.03377 41.4577 7.85965 41.4577C10.6855 41.4577 13.1671 42.9529 13.1671 44.6517C13.1671 46.3506 10.6855 47.8458 7.85965 47.8458ZM31.3669 58.8445V58.8366V58.8288L31.2025 41.2936L52.1205 37.2777V49.1688C50.8836 48.4016 49.2944 47.9319 47.5175 47.9319C43.5094 47.9319 40.3625 50.2412 40.3625 53.2003C40.3625 56.1516 43.5016 58.4687 47.5175 58.4687C51.5255 58.4687 54.6724 56.1595 54.6724 53.2003V29.0278C54.6724 28.9886 54.649 28.9573 54.649 28.9182C54.649 28.8712 54.6568 28.832 54.649 28.7851C54.6333 28.7224 54.602 28.6755 54.5785 28.6207C54.555 28.5502 54.5315 28.4798 54.4924 28.4172C54.4376 28.3232 54.3671 28.2371 54.2967 28.1588C54.2654 28.1275 54.2497 28.0805 54.2106 28.0492C54.1949 28.0336 54.1793 28.0336 54.1636 28.0257C54.0618 27.9475 53.9522 27.9005 53.8348 27.8613C53.7879 27.8457 53.7487 27.8144 53.6939 27.7987C53.5217 27.7596 53.3417 27.7439 53.1616 27.7831L29.6223 32.2999C29.4579 32.3312 29.317 32.3939 29.1839 32.48C29.1369 32.5113 29.1056 32.5504 29.0665 32.5818C28.9882 32.6444 28.9099 32.7148 28.8551 32.7931C28.816 32.8401 28.7925 32.8949 28.769 32.9497C28.722 33.0358 28.6829 33.1141 28.6594 33.208C28.6438 33.2706 28.6359 33.3333 28.6281 33.4037C28.6203 33.4585 28.6046 33.5055 28.6046 33.5603L28.6672 39.9169C28.6125 40.1047 28.589 40.2926 28.6281 40.4961C28.6359 40.5353 28.6594 40.5666 28.6751 40.6057L28.8082 54.7904C27.5713 54.0389 26.0057 53.5771 24.2366 53.5771C20.2285 53.5771 17.0816 55.8863 17.0816 58.8454C17.0816 61.7968 20.2207 64.1138 24.2366 64.1138C28.2446 64.1138 31.3915 61.8046 31.3915 58.8454L31.3669 58.8445ZM31.179 38.71L31.1399 34.6001L48.722 31.2262L52.1272 30.5764V34.6941L31.1872 38.71L31.179 38.71ZM47.5164 55.9242C44.8 55.9242 42.9134 54.4916 42.9134 53.1999C42.9134 51.9161 44.8078 50.4756 47.5164 50.4756C50.2329 50.4756 52.1195 51.9082 52.1195 53.1999C52.1195 54.4837 50.225 55.9242 47.5164 55.9242ZM19.6084 58.8519C19.6084 57.5681 21.5028 56.1276 24.2114 56.1276C26.9279 56.1276 28.8145 57.5602 28.8145 58.8441C28.8145 60.128 26.92 61.5605 24.2114 61.5605C21.4949 61.5605 19.6084 60.128 19.6084 58.8362V58.8519ZM68.6128 46.3423C73.0123 46.3423 76.4646 43.8217 76.4646 40.6042V19.9066L81.7721 23.8834C82.3357 24.3061 83.1342 24.1887 83.5569 23.6251C83.9796 23.0614 83.8622 22.263 83.2985 21.8403L75.9556 16.337C75.572 16.0474 75.0553 16.0004 74.6248 16.2196C74.1942 16.4388 73.9203 16.8771 73.9203 17.3547V36.3617C72.5346 35.4379 70.6872 34.8586 68.6128 34.8586C64.2134 34.8586 60.761 37.3793 60.761 40.5968C60.761 43.8142 64.2055 46.3349 68.6128 46.3349L68.6128 46.3423ZM68.6128 37.4104C71.4389 37.4104 73.9203 38.9056 73.9203 40.6044C73.9203 42.3031 71.4387 43.7984 68.6128 43.7984C65.7869 43.7984 63.3054 42.3032 63.3054 40.6044C63.3054 38.9057 65.7869 37.4104 68.6128 37.4104Z" fill="#275B89"/>
</svg>
