<svg width="140" height="111" viewBox="0 0 140 111" fill="none" xmlns="http://www.w3.org/2000/svg">
<path d="M139.438 43.1505C136.68 28.1084 125.292 19.2312 110.638 17.5597C99.1176 16.2412 111.309 23.1927 107.983 29.4676C106.994 31.3355 105.103 32.2204 103.374 33.2614C95.7979 29.2652 85.399 33.3308 77.835 33.2614C75.4234 27.6458 72.3293 22.6317 68.1307 18.1734C70.0044 13.8648 69.0271 2.33333 64.4815 0.262084C61.6534 -1.02758 53.4528 4.67477 51.4517 6.33458C43.6732 3.90564 35.6516 3.7379 27.8907 6.33458C25.0626 4.19479 18.2731 -0.420287 14.6875 0.0308278C12.9467 0.794213 12.137 3.22905 11.4719 4.91773C9.69647 9.44604 9.34366 14.1594 11.1076 18.7397C6.47517 24.3205 3.07457 27.3856 0.732384 34.9499C-0.146675 37.7953 -1.0546 41.2133 3.28288 40.2764C2.2014 43.9082 1.33969 47.4766 1.97007 51.2935C2.59467 55.0816 4.34704 56.4753 6.94373 52.9764C7.18662 57.9963 9.12986 62.8022 12.9004 66.2549C14.034 67.2901 15.2195 67.5793 16.4051 66.4978C20.0254 74.4556 24.1374 79.9554 31.4887 85.1316C31.6333 88.6883 33.5938 95.6399 34.3168 99.4626C29.1986 102.285 28.8227 108.722 34.2474 109.965C37.6942 110.757 43.5989 110.046 45.5652 106.605C48.0636 111.7 56.9409 112.14 59.6013 108.606C62.4755 104.795 66.9808 92.5514 66.9865 92.5292C72.9665 92.668 80.5773 90.4241 86.2333 88.7527C87.7196 90.8925 90.6922 95.0853 91.7737 97.4103C82.4221 106.346 96.3366 110.342 100.992 105.767C102.837 103.951 103.861 99.2494 104.983 96.7336C110.107 101.777 102.23 104.68 106.18 109.139C109.956 112.788 117.764 110.521 119.14 105.119C119.551 103.517 119.481 101.811 119.643 100.175C120.783 88.3421 126.196 76.0763 125.895 64.5446L125.889 64.4173C136.473 62.4857 141.302 53.2903 139.439 43.1526L139.438 43.1505ZM41.579 105.044C40.1795 105.599 35.6858 106.565 34.6622 105.703C33.4303 104.674 37.8372 102.164 38.3231 101.527C39.1963 100.377 36.6517 90.4466 36.3857 88.382C39.6995 90.1055 42.9033 91.505 46.6221 92.1354C46.0843 93.9282 42.4176 104.072 41.579 105.044ZM94.1552 103.297C90.9745 103.048 95.3177 100.452 95.7629 98.4392C96.3123 95.9408 94.5195 93.7722 93.2703 91.8173L90.4018 87.2659C92.0095 86.6066 93.5883 85.9241 95.1325 85.1318C95.6588 85.2533 96.7229 87.8847 97.0699 88.4746C98.2786 90.5391 99.8574 92.3263 101.552 94.0034C99.4467 99.3241 100.216 103.638 94.1552 103.297ZM116.317 93.0433C115.565 96.785 115.132 100.614 114.929 104.425C114.154 106.935 107.665 108.143 109.863 104.789C111.91 101.666 111.124 97.1493 108.637 94.5296C107.318 93.1416 105.624 92.1816 104.265 90.8225C99.9215 86.485 97.4984 80.9446 96.9663 74.8255C96.8217 73.1888 97.3595 70.8466 95.6708 69.8866C90.7781 67.1049 93.4443 79.6777 93.7913 81.0136C86.5043 84.767 76.8112 87.6759 68.5988 88.023C69.206 85.8368 70.7212 81.0484 70.5073 78.9259C70.3165 77.0406 67.6503 76.4218 66.8002 78.1625C66.2392 79.3019 66.1004 80.8171 65.8229 82.0605C64.4869 87.9479 59.9412 100.475 56.4307 105.783L56.3555 105.898C54.7421 106.448 51.671 106.806 50.1905 105.916C48.4555 104.875 52.0991 102.66 52.7526 102.001C54.447 100.3 53.1169 97.0212 52.7526 94.9681C52.3651 92.782 50.4739 80.9032 49.2017 79.7055C48.126 78.6992 46.0671 79.37 45.8994 80.8506C45.7548 82.1229 46.9809 86.177 47.1312 87.8772L47.1428 88.0218C34.4601 83.9389 24.2243 76.3685 19.5977 63.269C18.3659 59.7874 18.0478 53.7555 13.7797 60.7243C11.9637 58.064 10.8997 54.8659 11.1888 51.6272C11.3276 50.0484 12.571 47.5905 10.3849 46.856C9.07213 46.4164 7.15784 47.8912 5.96647 48.4464C6.05322 44.9532 6.68359 41.1132 9.34383 38.5975C10.1535 37.8283 13.716 35.5381 10.5872 34.0865C9.16454 33.4272 6.55044 34.6706 5.13359 35.1738C7.54521 27.8637 11.5704 25.429 15.5145 20.1198C16.5266 18.7608 15.2427 17.4885 14.7107 16.1814C13.3458 12.8502 14.381 7.09585 16.4284 4.32565C19.1522 5.96814 22.0555 7.00909 24.5655 9.03326C27.8214 11.6588 27.2258 10.9128 31.0716 9.69834C37.2482 7.74938 43.9915 8.26987 50.0578 10.3519C52.4521 11.1731 52.6025 10.8376 54.4241 9.22411C56.9167 7.01488 59.7506 5.52859 62.8967 4.47031C67.1936 11.7804 63.6717 14.1226 64.0071 19.6753C64.7358 21.017 66.2221 22.1679 67.2111 23.3592C70.068 26.7887 72.1557 30.6114 73.7809 34.758C72.1615 34.1971 67.1416 32.4159 67.4308 35.8742C67.5985 37.9042 72.9365 39.483 73.5495 48.4413C72.4275 47.383 70.4438 45.5324 68.732 46.0991C66.7773 46.7469 67.7431 49.575 67.8761 50.9629C68.2231 54.6238 67.5002 57.5096 65.7767 60.7252C64.8283 59.2794 61.6591 55.0634 59.8258 57.8046C59.2128 58.7183 59.0624 60.9391 58.7906 62.0668C58.0908 64.9584 56.8532 66.6009 55.1181 68.9664C53.9037 70.6262 54.8001 73.084 57.1423 72.4305C59.7736 71.696 61.5723 66.2135 62.9024 63.8654C64.3714 68.3648 66.6674 66.9942 68.7031 63.796C71.0049 60.1757 71.936 57.2319 72.2772 52.9639C73.8907 54.0049 76.0537 55.6185 76.9848 52.7673C78.2282 48.9619 77.5574 43.7974 75.7877 40.2638C78.2282 40.6629 81.6982 42.3284 80.3333 37.4069C85.3647 36.8575 89.9971 35.6199 95.1327 35.8917C107.48 36.5452 119.677 45.1623 121.69 57.8508C123.269 67.8847 118.318 83.0779 116.317 93.0433ZM129.96 58.4184C128.722 59.1991 127.514 59.6791 126.102 60.0609C124.795 48.7604 119.116 40.2293 108.555 35.1867C112.736 31.6704 113.552 27.1132 111.707 22.0182C119.11 22.7526 126.582 27.038 130.844 33.1163C136.136 40.6578 138.646 52.403 129.96 58.4184Z" fill="#275B89"/>
<path d="M43.8635 40.7669C42.8456 40.4083 42.0707 39.7317 41.579 38.7716C42.6316 38.1702 43.5685 37.5687 43.8981 36.3079C45.0085 32.1035 39.8382 32.6587 37.5191 32.6818C34.1243 33.4394 34.2747 36.9036 37.0796 38.7716C33.8121 44.0923 31.3022 38.3841 29.2143 38.7138C25.9641 39.2227 27.7801 43.5428 31.5045 44.6995C33.5807 48.5397 37.1837 50.8588 41.5848 49.7542C45.7661 48.6033 45.2919 46.8278 47.4838 44.9078C48.7214 43.8263 52.1741 42.3631 51.4454 40.1944C50.04 36.0305 46.8476 41.8138 43.8635 40.7669ZM39.8036 45.9314C38.4098 45.943 37.4381 45.6191 36.3799 44.6938C37.4382 44.0692 38.4387 43.514 39.2715 42.6002C40.3356 43.5486 41.3534 44.2136 42.6952 44.6938C41.7641 45.3762 40.9371 45.7232 39.8036 45.9314Z" fill="#275B89"/>
<path d="M31.4241 25.488C35.646 27.0322 33.3269 33.3648 29.1108 31.8206C24.889 30.2764 27.2023 23.9438 31.4241 25.488Z" fill="#275B89"/>
<path d="M51.8568 28.4253C52.1691 32.9073 45.4489 33.3759 45.1365 28.8937C44.8242 24.4118 51.5444 23.9432 51.8568 28.4253Z" fill="#275B89"/>
</svg>
