<svg width="106" height="147" viewBox="0 0 106 147" fill="none" xmlns="http://www.w3.org/2000/svg">
<path d="M93.2665 120.707C102.781 115.963 109.986 123.803 103.54 132.787C101.054 136.256 91.6894 143.002 87.6517 144.383C85.7671 145.025 84.9817 144.763 83.1365 144.115C78.4118 142.453 73.8769 138.795 69.6625 136.144C66.1483 136.832 62.5623 137.231 58.9763 137.231C56.254 141.766 53.2634 146 47.6227 146.765C41.4583 147.603 40.4439 145.11 35.7652 142.643C33.6254 141.51 30.4253 141.059 29.4699 138.494C24.3852 137.859 19.1568 137.506 14.5301 135.137C4.69463 130.098 0.801035 116.119 0.126918 105.872C-0.992093 89.0022 5.57145 73.7676 8.69946 57.5713C9.71377 52.3166 10.3878 47.088 11.1534 41.8005C12.5145 32.3707 16.7746 18.5046 22.3827 10.775C26.1258 5.61843 36.295 0.448642 42.6162 0.0691994C58.0991 -0.85349 71.7302 7.49001 75.1393 23.0049C75.7414 25.7468 75.8003 28.744 76.0031 31.5709C76.5201 38.815 76.3958 46.0199 76.795 53.2452C77.3905 64.1865 86.3621 73.4469 90.0267 83.5168C93.2725 92.4231 95.2553 102.638 94.6991 112.153C94.529 115.039 93.5343 117.833 93.2791 120.706L93.2665 120.707ZM75.3565 62.2766C74.6235 59.6133 73.6486 56.976 73.4783 54.1884C72.9221 45.3477 73.1315 36.4878 72.3855 27.6392C71.1487 12.9416 60.4233 3.89766 45.9217 3.37499C39.1816 3.13286 28.9147 7.32755 24.9745 12.916C20.1974 19.6955 16.0617 32.2081 14.7594 40.4C13.4768 48.4686 12.5082 56.4981 10.7284 64.4883C9.35423 70.6592 7.16856 76.5552 5.85316 82.6998C3.08516 95.6307 1.73056 109.164 7.11614 121.649C8.58198 125.052 11.6904 129.521 14.8707 131.485C15.0015 131.57 15.2109 131.877 15.3549 131.629C9.15132 124.358 5.89248 114.824 6.23925 105.23C6.62535 94.7142 9.87118 85.2262 12.1091 75.1278C14.105 66.0907 14.4387 57.4791 15.8523 48.4027C17.305 39.0907 20.0535 24.7667 25.5962 17.1494C33.992 5.6125 49.0043 1.92178 61.2738 10.0035C68.845 14.99 70.6774 23.9814 71.1223 32.5154C71.2925 38.3395 71.3252 44.1439 71.4299 49.9546C71.4495 51.054 71.6197 52.5853 71.7702 53.6978C72.189 56.7997 73.125 59.9993 75.3565 62.2766ZM80.1989 126.649C82.594 123.679 84.2168 119.883 85.4536 116.277C88.9023 106.2 89.1772 90.8941 84.5571 81.1241C80.2447 72.015 70.2194 64.9738 68.6554 54.9351C68.001 50.7208 68.1319 45.2501 67.9748 40.8526C67.5299 28.4977 68.6488 15.5012 54.7888 10.3783C44.7635 6.67454 32.6505 11.0262 27.4355 20.4036C22.6847 28.9501 20.6364 39.5701 19.164 49.2027C17.7047 58.7502 17.4692 68.1078 15.1396 77.531C11.8873 90.6778 6.84194 104.427 11.4423 117.973C13.5037 124.039 18.3004 133.083 25.5117 133.606C25.8519 133.633 26.2773 133.731 26.5587 133.75C27.6384 133.835 28.6201 133.901 29.7259 133.731C30.1513 133.122 30.2298 132.527 30.7075 131.879C32.2977 129.732 34.4768 130.066 36.8784 130.275C37.9778 127.18 40.4056 124.334 42.8595 122.2C47.1785 118.457 52.5903 117.404 57.387 121.029C61.4835 124.131 61.8172 129.287 60.2991 133.901L68.9174 132.939C69.0875 131.224 69.5587 129.673 70.6712 128.332C72.9943 125.531 77.0319 126.146 80.2187 126.65L80.1989 126.649ZM83.5298 127.775C83.7457 127.768 83.9224 127.971 84.1515 127.86C84.5506 127.67 85.8463 126.093 86.3567 125.655C86.8803 125.203 89.8774 123.109 89.9493 122.802C89.537 119.706 90.8458 116.585 91.2123 113.549C91.5984 110.349 91.2777 107.123 91.2319 103.909L90.5579 109.596C89.2884 115.937 87.1485 122.396 83.5363 127.781L83.5298 127.775ZM49.7167 122.317C43.0223 123.22 35.2874 135.641 41.1901 141.288C41.8968 141.968 42.6363 142.426 43.2645 142.937C43.5525 143.172 44.3574 143.336 44.6715 143.434C45.8821 143.807 49.5401 143.172 50.6199 142.387C54.9652 139.227 60.4293 129.378 56.1888 124.568C54.5266 122.683 52.1774 121.996 49.7168 122.323L49.7167 122.317ZM97.9385 122.638C96.0082 122.854 94.3066 123.921 92.7426 124.981C90.053 126.8 87.6187 128.94 85.4526 131.354C84.1962 131.95 82.1742 130.746 80.8523 130.366C79.0527 129.849 75.1067 128.966 73.5492 130.131C72.705 130.759 71.9394 132.814 72.247 133.795C72.3386 134.09 76.6249 136.878 77.2531 137.264C78.6208 138.108 80.2109 139.07 81.631 139.796C82.3508 140.163 85.0601 141.504 85.662 141.556C86.8464 141.655 91.6825 138.37 92.8995 137.552C96.1192 135.366 100.137 132.69 101.924 129.143C103.769 125.491 102.323 122.154 97.9318 122.638L97.9385 122.638ZM35.9345 133.586H33.6572C32.3419 134.79 32.6625 136.413 33.2907 137.879L36.0916 139.24C35.7513 137.342 35.6662 135.503 35.9345 133.586Z" fill="#275B89"/>
<path d="M49.8811 62.4794C57.2299 61.7988 62.0723 68.1007 65.5275 73.7546C69.9905 81.0576 72.8828 96.2665 68.8453 104.06C64.9452 111.585 60.5738 115.832 51.7193 116.46C42.2045 117.141 35.0977 111.736 33.1811 102.489C31.3487 93.6549 31.2899 81.2287 35.7529 73.1657C38.5668 68.0878 43.8279 63.0421 49.8811 62.4794ZM50.0381 65.7776C45.7061 66.1702 41.6619 70.0769 39.424 73.5386C34.4899 81.1558 34.4834 95.2581 36.9242 103.778C38.8088 110.355 45.2284 113.797 51.8575 112.986C59.4811 112.05 62.4324 109.138 65.8615 102.489C68.937 96.5278 66.9805 86.1361 64.7948 79.9841C63.4598 76.2279 57.7077 67.459 53.8337 66.2812C53.1858 66.0848 50.6469 65.7119 50.0317 65.7707L50.0381 65.7776Z" fill="#275B89"/>
<path d="M56.3073 46.4472C58.0416 46.048 58.7679 47.4943 58.0546 48.9797C54.8284 55.648 45.4117 58.2131 39.5482 53.4099C38.4358 52.4937 36.1127 50.2098 37.4215 48.7703C38.9986 47.0361 40.4187 49.8108 41.361 50.6549C44.4366 53.4295 49.5933 53.1547 52.6624 50.4979C53.6047 49.6799 55.5024 46.6369 56.3139 46.4537L56.3073 46.4472Z" fill="#275B89"/>
<path d="M33.6965 33.8831C37.6163 33.0847 38.0089 41.1206 34.2855 41.2384C30.8434 41.3497 30.647 34.5048 33.6965 33.8831Z" fill="#275B89"/>
<path d="M57.7263 32.3132C61.3647 31.5542 61.8621 39.1058 58.3152 39.3544C54.9974 39.59 54.572 32.9676 57.7263 32.3132Z" fill="#275B89"/>
</svg>
